<svg version="1.1" id="Layer_1" xmlns="http://www.w3.org/2000/svg" xmlns:xlink="http://www.w3.org/1999/xlink" x="0px" y="0px" viewBox="0 0 500 500" style="width: 138px;" xml:space="preserve" data-imageid="teacher-99" imageName="Teacher" class="illustrations_image">
<style type="text/css">
	.st0_teacher-99{fill:#F9D8A3;}
	.st1_teacher-99{fill:url(#SVGID_1_);}
	.st2_teacher-99{fill:#1B896C;}
	.st3_teacher-99{fill:#68E1FD;}
	.st4_teacher-99{fill:#42210B;}
	.st5_teacher-99{fill:#16242D;}
	.st6_teacher-99{fill:#E09A34;}
	.st7_teacher-99{fill:#FFFFFF;}
	.st8_teacher-99{fill:url(#SVGID_00000077310936226755911440000009202898560506508432_);}
	.st9_teacher-99{fill:#F4B389;}
	.st10_teacher-99{fill:#FFA197;}
	.st11_teacher-99{opacity:0.1;fill:#42210B;enable-background:new    ;}
</style>
<path id="field_teacher-99" class="st0_teacher-99" d="M242.9,424.5L20.8,293.2c-7.1-4-13.1-10.5-6.2-14.8L237.5,150c3.4-2.1,8.4-3.4,11.8-1.5l233.2,135.3&#10;&#9;c7.1,4.1,8.3,15.6,1.3,19.7L272.2,424.3C263.2,429.5,252,429.6,242.9,424.5z"/>
<g id="plant_teacher-99">
	
		<linearGradient id="SVGID_1_-teacher-99" gradientUnits="userSpaceOnUse" x1="149.6138" y1="269.3376" x2="96.8738" y2="226.4076" gradientTransform="matrix(1 0 0 -1 0 502)">
		<stop offset="0" style="stop-color:#D4A397"/>
		<stop offset="1" style="stop-color:#F9D8A3;stop-opacity:0"/>
	</linearGradient>
	<path class="st1_teacher-99" d="M123.4,251.3l-42.9,20.8c6.3,4.2,13,7.9,19.9,11l43.7-29.1"/>
	<path class="st2_teacher-99" d="M150.1,178.7c-0.6-0.1-1.3-0.1-1.9,0.1c-1.6,2.9-3.3,5.9-4.9,8.9l-3,7.2c-0.7,1.8-1.5,3.6-2.2,5.4&#10;&#9;&#9;c-1.2,4.2-2.1,8.6-2.9,12.9c0.5,0.6,1.2,1.1,2,1.2c1.7-2.2,4.1-3.4,6.4-5.1c3.2-2.5,5.8-5.8,7.5-9.5c0.7-1.4,1.3-2.9,1.8-4.4&#10;&#9;&#9;c0.2-1.6,0.5-3.1,0.6-4.7C152.1,186.8,151,182.8,150.1,178.7z"/>
	<path class="st2_teacher-99" d="M119.3,211.7c-0.1-0.1-0.2-0.2-0.2-0.4c-1.8-0.9-3.7-1.8-5.6-2.6c-0.6-0.4-1.2-0.8-1.8-1.2&#10;&#9;&#9;c-0.2,0.2-0.5,0.4-0.8,0.3c-2.7-0.1-5.5-0.4-8.2-0.9c-0.1,0.2-0.2,0.5-0.3,0.7c2.4,2.8,4.1,6.3,4.8,9.9c0.5,0.6,1.1,1.2,1.7,1.9&#10;&#9;&#9;c2.7,1.1,6.4,0.8,9.5,1.2c0.1-0.3,0.3-0.7,0.3-1l0.1,0.1c1,0.4,2,0.8,3,1.4c2,0.3,4,1.1,5.6,2.3c0.5-0.2,0.9-0.4,1.2-0.8&#10;&#9;&#9;C125.5,219,122.7,215.1,119.3,211.7z"/>
	<path class="st3_teacher-99 targetColor" d="M118.9,235.5l3.9,18.2c0.3,1.2,1.1,2.3,2.2,2.8c2.3,1.1,6.9,2.3,15.8,0.7c1.6-0.3,2.9-1.5,3.3-3.2l4-18.5" style="fill: rgb(104, 225, 253);"/>
	<ellipse class="st4_teacher-99" cx="133.5" cy="235.5" rx="14.6" ry="6"/>
	<path class="st5_teacher-99" d="M153.5,190.6c-0.3-4.4-3.2-8.3-2.8-12.8c0.1-0.8-1.1-1-1.4-0.4c-7.6,11.1-12.4,23.8-14.3,37.2&#10;&#9;&#9;c-0.1,0.2-0.1,0.3-0.1,0.5c-0.8,5.9-1,12-0.6,17.9c0.5,0,1-0.1,1.5-0.2c-0.4-5.9-0.2-11.8,0.6-17.6c2.6-3.1,6.3-4.5,9.4-7&#10;&#9;&#9;c2.6-2.1,4.7-4.8,6-7.9C153.2,197.3,153.8,193.9,153.5,190.6z M150.4,199.8c-1.6,3.7-4.4,6.8-7.8,8.8c-1.5,0.9-2.9,1.8-4.2,2.8&#10;&#9;&#9;c2.8-5.4,5.2-11.1,7.2-16.9c0.3-0.9-1.2-1.3-1.5-0.4c-1.9,5.5-4.1,10.8-6.7,15.9c2.1-10.6,6.2-20.6,12-29.7&#10;&#9;&#9;c0.4,2.5,1.6,4.7,2.2,7.3C152.5,191.7,152.1,195.9,150.4,199.8z"/>
	<path class="st5_teacher-99" d="M133.6,233.1c-1.2-3.1-2.4-6.3-3.9-9.4c0-0.3-0.1-0.6-0.3-0.7h-0.1c-1.8-3.7-4.2-7.1-7.2-10&#10;&#9;&#9;c-5.8-5.5-13.4-6.9-21.1-7.7c-0.8-0.1-0.9,0.9-0.5,1.3c0,0.2,0.2,0.4,0.3,0.4c4.6,2.8,3.2,10.1,8.1,12.7c2.3,1.2,5,0.9,7.5,1&#10;&#9;&#9;c3.3,0,6.5,0.8,9.5,2.2c2.6,2.8,4.4,6.3,5.3,10.1C132.1,233.1,132.9,233.1,133.6,233.1z M112.5,212.1c-0.9-0.3-1.3,1.1-0.4,1.5&#10;&#9;&#9;c4.1,1.5,7.9,3.6,11.2,6.4c-0.8-0.2-1.6-0.4-2.4-0.6c-3.2-0.5-8.2,0.5-11-1.2c-4-2.3-3.6-8-6.5-11.3c6.9,0.9,13.5,2.6,18.6,7.8&#10;&#9;&#9;c1.8,1.9,3.4,4.1,4.8,6.4C122.7,217.1,117.9,214,112.5,212.1L112.5,212.1z"/>
</g>
<g id="board_teacher-99">
	<path class="st3_teacher-99 targetColor" d="M386.6,172.2L209,71.7V185c0,3.1,1.6,5.9,4.3,7.4L374,283.2c4.1,2.3,9.2,0.9,11.5-3.2c0.7-1.3,1.1-2.7,1.1-4.2&#10;&#9;&#9;L386.6,172.2z" style="fill: rgb(104, 225, 253);"/>
	<path class="st4_teacher-99" d="M376.7,283.5l-11-6.2l-27.9-15.8L301,240.6l-38.1-21.6l-31.4-17.8l-17.1-9.7l-1.1-0.6&#10;&#9;&#9;c-1.9-1.1-3.1-3.2-3.1-5.4c0-2.4,0-4.8,0-7.2V71.7l-1.7,1l4.7,2.7l12.9,7.3l19.2,10.8l23.3,13.2l25.5,14.4l25.8,14.6l24,13.6&#10;&#9;&#9;l20.3,11.5l14.6,8.3c2.3,1.3,4.5,2.9,6.9,3.9c0.1,0.1,0.2,0.1,0.3,0.2l-0.6-1V277c0,0.4,0,0.9,0,1.3c0,3.3-2.6,5.9-5.8,6&#10;&#9;&#9;C378.6,284.3,377.6,284,376.7,283.5c-1.3-0.6-2.4,1.3-1.2,2c4,2.2,9,0.7,11.2-3.3c0.7-1.2,1-2.5,1-3.9c0-1.5,0-3,0-4.4v-86.4&#10;&#9;&#9;c0-5,0.2-10,0-15v-0.2c0-0.4-0.2-0.8-0.6-1l-4.7-2.7l-12.9-7.3l-19.2-10.8l-23.3-13.2l-25.5-14.4l-25.8-14.6l-24-13.6l-20.3-11.5&#10;&#9;&#9;l-14.6-8.3c-2.3-1.3-4.6-2.7-6.9-3.9l-0.3-0.2c-0.5-0.3-1.2-0.1-1.5,0.4c-0.1,0.2-0.2,0.4-0.1,0.6v111.8c0,0.7,0,1.4,0,2.1&#10;&#9;&#9;c0,3,1.6,5.7,4.1,7.2c3.9,2.3,8,4.5,12,6.8l28.7,16.2l37.2,21l38.1,21.6l30.9,17.5l15.9,9l0.7,0.4c0.5,0.3,1.2,0.1,1.5-0.4&#10;&#9;&#9;C377.4,284.5,377.2,283.8,376.7,283.5z"/>
	<path class="st6_teacher-99" d="M206.5,179.6c-2.1-0.1-10.1,3.6-10.1,3.6v9.5l183.7,103.3c0,0,8.3-4.4,8.3-5.8s-1.2-10.6-1.2-10.6L206.5,179.6&#10;&#9;&#9;z"/>
	<path class="st7_teacher-99" d="M248.1,128.8l4.9,18.4l-2.1-1l-1.5-5.8l-5.4-2.7l-1.7,4.2l-2-1l5.5-13.3L248.1,128.8z M244.4,136.4l4.6,2.3&#10;&#9;&#9;l-1.4-5.3c-0.3-1.2-0.5-2.3-0.7-3.3l0,0c-0.2,0.8-0.5,1.7-0.8,2.5L244.4,136.4"/>
	<path class="st7_teacher-99" d="M261.8,143.1c1.8,1.3,2.9,3.3,3.1,5.5c0.1,1-0.4,2-1.4,2.5c-1.1,0.5-2.8,0.1-5.3-1.1c-1-0.5-2-1.1-3-1.7&#10;&#9;&#9;l0.3-15.6c1.2,0.4,2.4,0.9,3.6,1.4c1.6,0.7,3.1,1.8,4.1,3.2c0.8,1,1.2,2.2,1.2,3.4c0.1,1.2-0.8,2.2-2,2.3&#10;&#9;&#9;C262.3,143.1,262.1,143.1,261.8,143.1L261.8,143.1z M258.8,148.7c2,1,3.9,1.2,4-1.2c0-2.2-1.7-3.9-3.9-5l-1.6-0.8l-0.1,6.1&#10;&#9;&#9;C257.8,148.1,258.3,148.5,258.8,148.7 M257.5,135.1l-0.1,5.1l1.8,0.9c2.1,1,3.3,0.5,3.4-1c0-1.9-1.3-3.3-3.3-4.2&#10;&#9;&#9;C258.7,135.5,258.1,135.3,257.5,135.1"/>
	<path class="st7_teacher-99" d="M274.8,141.8c1.3,0.6,2.5,1.5,3.6,2.5l-0.5,1.4c-0.9-0.9-1.9-1.6-3.1-2.2c-3.6-1.8-6-0.6-6.1,3.6&#10;&#9;&#9;c-0.1,4,2.2,7.6,5.7,9.3c1,0.5,2.1,0.9,3.2,0.9l0.4,1.8c-1.4-0.1-2.8-0.5-4-1.2c-4.5-2.2-7.4-6.8-7.4-11.8&#10;&#9;&#9;C266.8,141.2,270.1,139.5,274.8,141.8z"/>
</g>
<g id="teacher_teacher-99">
	
		<linearGradient id="SVGID_00000136370097450201943300000000867684422276142229_-teacher-99" gradientUnits="userSpaceOnUse" x1="309.1592" y1="142.9486" x2="251.6693" y2="96.1486" gradientTransform="matrix(1 0 0 -1 0 502)">
		<stop offset="0" style="stop-color:#D4A397"/>
		<stop offset="1" style="stop-color:#F9D8A3;stop-opacity:0"/>
	</linearGradient>
	<path style="fill:url(#SVGID_00000136370097450201943300000000867684422276142229_);" d="M278.7,373.3l-47.6,25.4&#10;&#9;&#9;c0,0,21.1,11.8,31,16l43.7-29.1"/>
	<path class="st5_teacher-99" d="M278.9,368.9c-1,0.9-1.8,2-2.2,3.3c-0.4,1.7-4,10.6-2.1,10.7s11.4-3.5,11.8-5.1s3.2-12,3.2-12s0,5.3,0.7,5.1&#10;&#9;&#9;s0-14,0-14"/>
	<path class="st5_teacher-99" d="M303.4,367.4c0,2.2,1,17.2,0,17.8s-2.4-7.3-2.4-7.3"/>
	<path class="st5_teacher-99" d="M296.8,370.4c0,0-5.8,11.1-6.6,15.3c-1,4.8-2.4,11.7,0,10.2s9.2-6.3,10.6-8.6c2.6-4.5,2.6-17.7,2.6-17.7"/>
	<path class="st9_teacher-99" d="M290.1,310.9c0.3,1.1,2.4,9.8,3.2,16.1s4.2,39.1,3.4,43.4s-5.8,11.9-5,14c0.5,1.3,1.6,2.3,2.9,2.8&#10;&#9;&#9;c0,0,4.2,0.9,6.1-2.6s2.6-13.7,2.6-15.1s5.8-28.8,4.2-36s-2.4-27.8-2.4-27.8L290.1,310.9z"/>
	<path class="st9_teacher-99" d="M294.9,319.6c-1.6-7.1-2.4-27.8-2.4-27.8l-6.4,2.1c0,0,0,0.1,0.1,0.1c1.8,0.7,2.7,2.6,2,4.4c0,0,0,0.1,0,0.1&#10;&#9;&#9;c-1.6,4.6-4.8,8.1-7.1,12.4c-0.2,0.3-0.4,0.6-0.6,0.9c0,0.4,0.1,0.7,0.1,1.1c0.8,6.4,4.2,39.1,3.4,43.4s-5.8,11.9-5,14&#10;&#9;&#9;c0.5,1.3,1.6,2.3,2.9,2.8c0,0,4.2,0.9,6.1-2.6s2.6-13.7,2.6-15.1S296.5,326.8,294.9,319.6z"/>
	<path class="st4_teacher-99" d="M278.7,243.1l1.6,70c0,0,3.4,12.4,26.4,7.3c1-8.1,1.5-16.3,1.7-24.5c0-10.8,9.8-24.1-1-42.4&#10;&#9;&#9;C295.9,234,278.7,243.1,278.7,243.1z"/>
	<path class="st9_teacher-99" d="M240.6,194.3c-1.8,0.1-1.2,1.9-1.2,1.9s-3.5-2.7-6.2-1.9c-1.4,2.1-1.1,7.3,0.4,10.3c4.8,2.6,10.2,4.1,15.6,4.2&#10;&#9;&#9;l0.7-5.1C249.9,203.8,242.4,194.2,240.6,194.3z"/>
	<path class="st4_teacher-99" d="M239.4,196.2c0,0,1.2,8.5-0.9,9.2l-1.4,0.9c0,0,2,0.9,2.6-0.1S242,199.6,239.4,196.2z"/>
	<path class="st10_teacher-99" d="M291.2,257.4c6.1,1.7,12.9,3.1,18.5-0.6c9.4-43.5,2.5-57-13.7-62.2c-6.4-2-13,1.7-16.2,7.5&#10;&#9;&#9;c-1.8,16.8-0.8,34-0.9,50.8c0,0.8,2.9,1.3,3.7,1.6c2.2,0.9,4.4,1.7,6.7,2.3L291.2,257.4z"/>
	<path class="st10_teacher-99" d="M281.5,200.2c0,0-10.3,14.6-31.3,0.2c0,0-7.2,8.8-6.1,10.1s23.7,18.6,34.4,9.2"/>
	<path class="st3_teacher-99 targetColor" d="M277.6,209.8c-0.6-0.3,1,33.3,1,33.3l18.9,7.6l-0.9-21l-1.1-12.5C295.5,217.1,278.3,210.1,277.6,209.8z" style="fill: rgb(104, 225, 253);"/>
	<path class="st9_teacher-99" d="M297.3,234.3c-0.2-0.1-0.1-0.9-0.1-2c-1.5-0.8-3.1-1.4-4.8-1.8c-2.8-0.2-7.3-0.5-8.4,0c-1.7,0.8-1,3.3-1,3.3&#10;&#9;&#9;s-2.7,0.1-2.3,1.9c0.2,1,1,1.8,2.1,2c0,0-2.1,1.6-0.9,2.9l1.2,1.3c0.1,1,0.5,1.9,1.1,2.7c1,1.1,12-1.3,12-1.3l4.6,3.6l0.5-9.7&#10;&#9;&#9;C301.4,237.2,297.9,234.6,297.3,234.3z"/>
	<path class="st4_teacher-99" d="M292.2,233.6c-3.1,0.2-6.2,0.1-9.3-0.2c-0.3,0-0.3,0.5,0,0.5c3.1,0.3,6.2,0.4,9.3,0.2&#10;&#9;&#9;C292.5,234,292.5,233.5,292.2,233.6z"/>
	<path class="st4_teacher-99" d="M292.6,236.9c-3.3,0.7-6.8,1.1-10.2,1.1c-0.1,0-0.2,0.1-0.2,0.2s0.1,0.2,0.2,0.2c3.5,0,6.9-0.3,10.3-1.1&#10;&#9;&#9;C293,237.3,292.9,236.8,292.6,236.9z"/>
	<path class="st4_teacher-99" d="M292.1,240.3c-2.9,0.6-6,1.5-9,1.5c-0.1,0-0.2,0.1-0.2,0.2s0.1,0.2,0.2,0.2c3.1,0,6.2-0.9,9.2-1.5&#10;&#9;&#9;C292.5,240.7,292.4,240.3,292.1,240.3z"/>
	<path class="st7_teacher-99" d="M286.6,195.6c0,0-4.4,5.4-1.4,8.9s6.6,0,6.6,0s-0.1,3,3.8,2.9s7.9-6.7,7.9-6.7"/>
	<path class="st9_teacher-99" d="M288.9,195.5L288.9,195.5c0,0-0.9,8.5,5.5,5.9c2.7-1.1,5.4-2.3,7.9-3.8v-5.1"/>
	<path class="st11_teacher-99" d="M288.9,195.5L288.9,195.5c0,0-0.9,8.5,5.5,5.9c2.7-1.1,5.4-2.3,7.9-3.8v-5.1"/>
	<path class="st10_teacher-99" d="M310.3,201.9c0.8,0.8,18.4,21.9,20.5,30.8s-13.4,16.5-30,14.2l0.5-9.7l9.6-4.5l-4.4-5.2"/>
	<path class="st9_teacher-99" d="M284.8,177.6c0,0-3.1,16.9,4,19.6s13.6-10,13.6-14C302.4,175.1,294.3,175.8,284.8,177.6z"/>
	<path class="st4_teacher-99" d="M325.3,220.7c-0.1-1.1-0.6-2.1-1.3-2.9c-1.5-1.7-3.8-2.4-5-4.3c-2-3.1,1.3-5.8,1.5-8.8c0.5-5.6-6.7-6.2-9.9-9&#10;&#9;&#9;c-1.7-1.5-2.3-3.5-2.9-5.6c-1.8-6.4-2.2-14.3-8.4-18.3c-2-1.1-4.2-1.7-6.5-1.7c-2.6-0.1-5.6,0.1-7.8,1.7c-2,1.4-3.3,3.7-3.5,6.1&#10;&#9;&#9;c-0.1,1.8,0.4,4.5,2.6,4.8c1.4,0.2,2.1-0.9,3-1.8s1.6-2.2,2.6-3.2c0.7-0.6,1.5-1.1,2.4-1.2c3.6-0.6,0.4,5.9,0.3,7.2&#10;&#9;&#9;c-0.1,0.7,0.2,1.5,0.6,2.1c0.6,0.6,1.3,1,2.2,1.2c1.7,0.5,4.7,1.4,3.6,3.8c-0.6,1.4-1.9,2.4-2.6,3.7c-1.5,2.8-1.8,5.9,0.3,8.5&#10;&#9;&#9;c1,1.2,2.1,2.2,3.4,3.1c1.4,0.9,2.3,2.4,2.5,4c0,0.1,0,0.2,0,0.3c-0.3,2.6-1.4,5.9-1.3,8.8c-0.1,1.1,0.2,2.1,0.8,3&#10;&#9;&#9;c0.5,1.1,1.3,2,2.2,2.8c3.8,3.3,9,4.3,13.8,2.8c2.3-0.7,5-1.6,6.6-3.6C325.1,223.3,325.5,222,325.3,220.7z M319.6,204.9&#10;&#9;&#9;c0-0.4,0-0.7,0-1.1c0-0.3-0.1-0.5-0.2-0.8C319.7,203.6,319.7,204.2,319.6,204.9z"/>
	<path class="st4_teacher-99" d="M316.8,231.6c-4.7,2.6-10,4.2-15.4,4.5c-0.4,0-0.8,0.4-0.8,0.8c0.1,3.1,0.1,6.2,0.2,9.3c0,0.4,0.3,0.7,0.7,0.8&#10;&#9;&#9;l-0.7-0.1l8.9,4.2l0.9-3.8c-3,0.1-6-0.1-9-0.3c0.4,0,0.8-0.3,0.8-0.7c0,0,0,0,0-0.1l-0.1-8.5c5.4-0.5,10.7-2.1,15.4-4.7&#10;&#9;&#9;C318.6,232.5,317.8,231.1,316.8,231.6z"/>
	<path class="st7_teacher-99" d="M237.9,195.4l-9.3-54.1c-0.1-0.4-0.5-0.7-0.9-0.7s-0.7,0.5-0.7,0.9l0,0l9.1,53&#10;&#9;&#9;C236.8,194.8,237.4,195,237.9,195.4z"/>
</g>
</svg>